<svg width="27" height="9" viewBox="0 0 27 9" fill="none" xmlns="http://www.w3.org/2000/svg">
<path d="M0.69562 8H6.42712V6.81935H3.16424L5.30014 4.72639C5.60782 4.44018 5.85468 4.1146 6.04072 3.74968C6.23392 3.38475 6.33052 3.00551 6.33052 2.61196C6.33052 2.36152 6.27685 2.10393 6.16952 1.83918C6.06934 1.57443 5.91193 1.33114 5.69726 1.10933C5.48976 0.887507 5.225 0.708621 4.90301 0.572668C4.58102 0.42956 4.20178 0.358006 3.7653 0.358006C3.19286 0.358006 2.70629 0.479648 2.30559 0.722932C1.91204 0.959061 1.61151 1.28821 1.40401 1.71038C1.20366 2.1254 1.10348 2.60123 1.10348 3.13789H2.35926C2.35926 2.80874 2.41292 2.51894 2.52025 2.2685C2.63474 2.01806 2.79574 1.82845 3.00324 1.69965C3.21075 1.56369 3.45761 1.49572 3.74383 1.49572C3.95134 1.49572 4.1338 1.5315 4.29122 1.60305C4.44864 1.66745 4.58102 1.75689 4.68835 1.87138C4.80283 1.98586 4.88512 2.11466 4.93521 2.25777C4.99245 2.39372 5.02107 2.53325 5.02107 2.67636C5.02107 2.87672 4.98888 3.06633 4.92448 3.24522C4.86008 3.42411 4.76348 3.60299 4.63468 3.78188C4.50588 3.96076 4.35204 4.1468 4.17316 4.34L0.69562 8ZM8.63294 4.2434C8.63294 3.8427 8.6723 3.47419 8.75101 3.13789C8.82972 2.80158 8.94063 2.51179 9.08373 2.2685C9.234 2.02522 9.41288 1.83918 9.62039 1.71038C9.8279 1.57443 10.0569 1.50645 10.3073 1.50645C10.5721 1.50645 10.8046 1.57443 11.005 1.71038C11.2125 1.83918 11.3878 2.02522 11.5309 2.2685C11.6812 2.51179 11.7956 2.80158 11.8744 3.13789C11.9531 3.47419 11.9924 3.8427 11.9924 4.2434C11.9924 4.64411 11.9531 5.01261 11.8744 5.34891C11.7956 5.68522 11.6812 5.97501 11.5309 6.2183C11.3878 6.46158 11.2125 6.6512 11.005 6.78716C10.8046 6.91595 10.5721 6.98035 10.3073 6.98035C10.0569 6.98035 9.8279 6.91595 9.62039 6.78716C9.41288 6.6512 9.234 6.46158 9.08373 6.2183C8.94063 5.97501 8.82972 5.68522 8.75101 5.34891C8.6723 5.01261 8.63294 4.64411 8.63294 4.2434ZM7.3879 4.2434C7.3879 5.02334 7.50954 5.70311 7.75283 6.2827C8.00327 6.86229 8.34673 7.31308 8.78321 7.63507C9.22684 7.95707 9.73488 8.11806 10.3073 8.11806C10.8941 8.11806 11.4057 7.95707 11.8422 7.63507C12.2858 7.31308 12.6292 6.86229 12.8725 6.2827C13.1158 5.70311 13.2375 5.02334 13.2375 4.2434C13.2375 3.46346 13.1158 2.78369 12.8725 2.20411C12.6292 1.62452 12.2858 1.17372 11.8422 0.85173C11.4057 0.529736 10.8941 0.368739 10.3073 0.368739C9.73488 0.368739 9.22684 0.529736 8.78321 0.85173C8.34673 1.17372 8.00327 1.62452 7.75283 2.20411C7.50954 2.78369 7.3879 3.46346 7.3879 4.2434ZM13.8814 8H19.6129V6.81935H16.3501L18.486 4.72639C18.7936 4.44018 19.0405 4.1146 19.2265 3.74968C19.4197 3.38475 19.5163 3.00551 19.5163 2.61196C19.5163 2.36152 19.4627 2.10393 19.3553 1.83918C19.2552 1.57443 19.0978 1.33114 18.8831 1.10933C18.6756 0.887507 18.4108 0.708621 18.0888 0.572668C17.7668 0.42956 17.3876 0.358006 16.9511 0.358006C16.3787 0.358006 15.8921 0.479648 15.4914 0.722932C15.0979 0.959061 14.7973 1.28821 14.5898 1.71038C14.3895 2.1254 14.2893 2.60123 14.2893 3.13789H15.5451C15.5451 2.80874 15.5987 2.51894 15.7061 2.2685C15.8206 2.01806 15.9816 1.82845 16.1891 1.69965C16.3966 1.56369 16.6434 1.49572 16.9297 1.49572C17.1372 1.49572 17.3196 1.5315 17.477 1.60305C17.6345 1.66745 17.7668 1.75689 17.8742 1.87138C17.9887 1.98586 18.0709 2.11466 18.121 2.25777C18.1783 2.39372 18.2069 2.53325 18.2069 2.67636C18.2069 2.87672 18.1747 3.06633 18.1103 3.24522C18.0459 3.42411 17.9493 3.60299 17.8205 3.78188C17.6917 3.96076 17.5379 4.1468 17.359 4.34L13.8814 8ZM20.3591 8H26.0906V6.81935H22.8277L24.9636 4.72639C25.2713 4.44018 25.5181 4.1146 25.7042 3.74968C25.8974 3.38475 25.994 3.00551 25.994 2.61196C25.994 2.36152 25.9403 2.10393 25.833 1.83918C25.7328 1.57443 25.5754 1.33114 25.3607 1.10933C25.1532 0.887507 24.8884 0.708621 24.5665 0.572668C24.2445 0.42956 23.8652 0.358006 23.4287 0.358006C22.8563 0.358006 22.3697 0.479648 21.969 0.722932C21.5755 0.959061 21.275 1.28821 21.0675 1.71038C20.8671 2.1254 20.7669 2.60123 20.7669 3.13789H22.0227C22.0227 2.80874 22.0764 2.51894 22.1837 2.2685C22.2982 2.01806 22.4592 1.82845 22.6667 1.69965C22.8742 1.56369 23.1211 1.49572 23.4073 1.49572C23.6148 1.49572 23.7972 1.5315 23.9547 1.60305C24.1121 1.66745 24.2445 1.75689 24.3518 1.87138C24.4663 1.98586 24.5486 2.11466 24.5987 2.25777C24.6559 2.39372 24.6845 2.53325 24.6845 2.67636C24.6845 2.87672 24.6523 3.06633 24.5879 3.24522C24.5235 3.42411 24.4269 3.60299 24.2981 3.78188C24.1693 3.96076 24.0155 4.1468 23.8366 4.34L20.3591 8Z" fill="white"/>
</svg>
