<svg width="138" height="27" viewBox="0 0 138 27" fill="none" xmlns="http://www.w3.org/2000/svg">
<g clip-path="url(#clip0_0_279)">
<path d="M4.43636 17.3716H7.34218C8.4217 17.3716 9.36812 17.2238 10.1815 16.928C11.0096 16.6175 11.6602 16.1738 12.1335 15.5971C12.6215 15.0204 12.8655 14.3253 12.8655 13.512C12.8655 12.6247 12.6215 11.8927 12.1335 11.316C11.6602 10.7245 11.0096 10.2882 10.1815 10.0073C9.36812 9.71151 8.4217 9.56363 7.34218 9.56363H1.64145V25.0909H7.71927C8.94667 25.0909 10.0114 24.943 10.9135 24.6473C11.8155 24.3367 12.5105 23.8635 12.9985 23.2276C13.5013 22.5918 13.7527 21.7562 13.7527 20.7211C13.7527 19.9373 13.5753 19.2719 13.2204 18.7247C12.8802 18.1628 12.4218 17.7044 11.8451 17.3495C11.2684 16.9798 10.6251 16.7136 9.91527 16.5509C9.20545 16.3882 8.47345 16.3069 7.71927 16.3069H4.43636V18.3476H7.29782C7.66752 18.3476 8.00024 18.3846 8.296 18.4585C8.60655 18.5177 8.88012 18.6212 9.11673 18.7691C9.35333 18.917 9.53818 19.1092 9.67127 19.3458C9.80436 19.5824 9.87091 19.8634 9.87091 20.1887C9.87091 20.6915 9.75261 21.0908 9.516 21.3865C9.29418 21.6675 8.99103 21.8745 8.60655 22.0076C8.22206 22.1259 7.78582 22.1851 7.29782 22.1851H5.39018V12.4695H6.94291C7.59358 12.4695 8.09636 12.6025 8.45127 12.8687C8.80618 13.1349 8.98364 13.5342 8.98364 14.0665C8.98364 14.4215 8.9023 14.7246 8.73964 14.976C8.57697 15.2126 8.34036 15.3975 8.02982 15.5305C7.73406 15.6636 7.37176 15.7302 6.94291 15.7302H4.43636V17.3716ZM18.8559 25.0909H26.6861V22.0076H18.8559V25.0909ZM18.8559 12.6469H26.6861V9.56363H18.8559V12.6469ZM18.8559 18.4364H26.2425V15.4196H18.8559V18.4364ZM16.3716 9.56363V25.0909H19.965V9.56363H16.3716ZM32.2213 25.0909H40.0515V22.0076H32.2213V25.0909ZM32.2213 12.6469H40.0515V9.56363H32.2213V12.6469ZM32.2213 18.4364H39.6079V15.4196H32.2213V18.4364ZM29.737 9.56363V25.0909H33.3304V9.56363H29.737ZM43.1024 9.56363V25.0909H46.9177V9.56363H43.1024ZM60.9213 9.56363V18.3033L50.2075 8.78727V25.0909H53.801V16.3513L64.537 25.8673V9.56363H60.9213ZM66.2659 12.9131H70.5248V25.0909H74.2736V12.9131H78.5547V9.56363H66.2659V12.9131ZM82.737 25.0909H90.5672V22.0076H82.737V25.0909ZM82.737 12.6469H90.5672V9.56363H82.737V12.6469ZM82.737 18.4364H90.1235V15.4196H82.737V18.4364ZM80.2526 9.56363V25.0909H83.8461V9.56363H80.2526ZM97.4998 18.0593L101.847 25.0909H106.239L101.382 18.0593H97.4998ZM93.618 9.56363V25.0909H97.3667V9.56363H93.618ZM95.9693 12.7356H99.0082C99.511 12.7356 99.9398 12.817 100.295 12.9796C100.664 13.1423 100.945 13.3789 101.138 13.6895C101.33 13.9852 101.426 14.3475 101.426 14.7764C101.426 15.2052 101.33 15.5749 101.138 15.8855C100.945 16.1812 100.664 16.4104 100.295 16.5731C99.9398 16.721 99.511 16.7949 99.0082 16.7949H95.9693V19.7007H99.2744C100.605 19.7007 101.714 19.4863 102.602 19.0575C103.489 18.6286 104.162 18.0371 104.62 17.2829C105.079 16.5139 105.308 15.6341 105.308 14.6433C105.308 13.6377 105.079 12.7578 104.62 12.0036C104.162 11.2347 103.489 10.6358 102.602 10.2069C101.714 9.77806 100.605 9.56363 99.2744 9.56363H95.9693V12.7356ZM118.694 9.56363V18.3033L107.98 8.78727V25.0909H111.573V16.3513L122.309 25.8673V9.56363H118.694ZM127.299 19.6342L124.682 21.5196C125.036 22.259 125.532 22.9393 126.168 23.5604C126.804 24.1815 127.55 24.6768 128.408 25.0465C129.281 25.4015 130.22 25.5789 131.225 25.5789C131.95 25.5789 132.652 25.468 133.332 25.2462C134.028 25.0392 134.641 24.7286 135.174 24.3145C135.721 23.9005 136.15 23.3903 136.46 22.784C136.785 22.1629 136.948 21.4605 136.948 20.6767C136.948 20.0261 136.845 19.4493 136.638 18.9465C136.431 18.4438 136.142 18.0001 135.772 17.6156C135.418 17.2312 135.004 16.9058 134.53 16.6396C134.057 16.3587 133.547 16.1147 133 15.9076C132.275 15.6562 131.654 15.4196 131.136 15.1978C130.634 14.976 130.242 14.732 129.961 14.4658C129.695 14.1996 129.562 13.8891 129.562 13.5342C129.562 13.1941 129.702 12.9131 129.983 12.6913C130.264 12.4547 130.671 12.3364 131.203 12.3364C131.602 12.3364 131.972 12.4177 132.312 12.5804C132.667 12.7282 132.985 12.9427 133.266 13.2236C133.562 13.4898 133.82 13.8078 134.042 14.1775L136.904 12.5804C136.638 12.048 136.253 11.523 135.75 11.0055C135.248 10.4879 134.612 10.059 133.843 9.71891C133.088 9.37879 132.194 9.20873 131.159 9.20873C130.153 9.20873 129.236 9.38618 128.408 9.74109C127.595 10.0812 126.944 10.584 126.456 11.2495C125.983 11.9149 125.746 12.7061 125.746 13.6229C125.746 14.3919 125.887 15.0499 126.168 15.5971C126.449 16.1295 126.804 16.5879 127.232 16.9724C127.661 17.3421 128.112 17.6452 128.586 17.8818C129.074 18.1184 129.502 18.3033 129.872 18.4364C130.626 18.7173 131.233 18.9687 131.691 19.1905C132.149 19.4124 132.482 19.649 132.689 19.9004C132.896 20.137 133 20.4549 133 20.8542C133 21.3274 132.822 21.7045 132.467 21.9855C132.112 22.2516 131.661 22.3847 131.114 22.3847C130.597 22.3847 130.101 22.2738 129.628 22.052C129.17 21.8302 128.741 21.5122 128.342 21.0982C127.957 20.6841 127.61 20.1961 127.299 19.6342Z" fill="white"/>
</g>
<defs>
<clipPath id="clip0_0_279">
<rect width="139.131" height="26.9091" fill="white" transform="translate(0 0.0909081)"/>
</clipPath>
</defs>
</svg>
